<svg width="1290" height="2796" viewBox="0 0 1290 2796" fill="none" xmlns="http://www.w3.org/2000/svg">
  <rect width="1290" height="2796" fill="#F7FAFC"/>
  <circle cx="140" cy="220" r="360" fill="#30B5A8" fill-opacity="0.14"/>
  <circle cx="1140" cy="260" r="330" fill="#34C759" fill-opacity="0.12"/>
  <circle cx="1020" cy="2480" r="420" fill="#30B5A8" fill-opacity="0.10"/>
  <rect x="455" y="1030" width="380" height="380" rx="112" fill="url(#bg)"/>
  <rect x="466" y="1041" width="358" height="358" rx="101" stroke="white" stroke-opacity="0.34" stroke-width="3"/>
  <circle cx="645" cy="1114" r="31" fill="white"/>
  <rect x="628" y="1196" width="34" height="135" rx="17" fill="white"/>
  <circle cx="645" cy="1170" r="15" fill="white" fill-opacity="0.86"/>
  <circle cx="645" cy="1250" r="15" fill="white" fill-opacity="0.86"/>
  <circle cx="645" cy="1331" r="15" fill="white" fill-opacity="0.86"/>
  <rect x="575" y="1199" width="22" height="134" rx="11" transform="rotate(23 575 1199)" fill="white" fill-opacity="0.92"/>
  <rect x="695" y="1206" width="22" height="134" rx="11" transform="rotate(-23 695 1206)" fill="white" fill-opacity="0.92"/>
  <text x="645" y="1515" text-anchor="middle" font-family="Inter, -apple-system, BlinkMacSystemFont, Segoe UI, sans-serif" font-size="72" font-weight="800" fill="#111111">Fizioterapia ime</text>
  <text x="645" y="1585" text-anchor="middle" font-family="Inter, -apple-system, BlinkMacSystemFont, Segoe UI, sans-serif" font-size="34" font-weight="500" fill="#6E6E73">Lëviz më mirë, jeto më mirë.</text>
  <defs>
    <linearGradient id="bg" x1="488" y1="1060" x2="805" y2="1380" gradientUnits="userSpaceOnUse">
      <stop stop-color="#30B5A8"/>
      <stop offset="1" stop-color="#34C759"/>
    </linearGradient>
  </defs>
</svg>
